<?xml version="1.0" encoding="UTF-8"?><svg id="Layer_2" xmlns="http://www.w3.org/2000/svg" viewBox="0 0 137.85 87.6"><defs><style>.cls-1{fill:#eeedbe;}.cls-1,.cls-2,.cls-3,.cls-4{stroke:#214faa;stroke-miterlimit:10;stroke-width:2px;}.cls-2{fill:#132a5b;}.cls-3{fill:#d3c22a;}.cls-4{fill:#d663a6;}</style></defs><g id="Layer_2-2"><path class="cls-1" d="m112.07,63.9c1.24,1.56,3.38,1.93,4.78.82,1.4-1.11,1.53-3.28.29-4.84-1.24-1.56-6.37-5.7-7.77-4.59-1.4,1.11,1.46,7.05,2.7,8.61Z"/><path class="cls-1" d="m128.83,75.22c-1.42-1.41-3.58-1.52-4.84-.25s-1.13,3.44.28,4.84,7,4.91,8.26,3.64-2.29-6.83-3.7-8.23Z"/><path class="cls-1" d="m127.37,62.5c-1.7,1.05-2.31,3.13-1.37,4.65.94,1.52,3.08,1.9,4.77.86s6.41-5.66,5.47-7.18-7.17.63-8.87,1.67Z"/><path class="cls-1" d="m114.63,79.65c1.68-1.08,2.25-3.18,1.28-4.68s-3.11-1.84-4.79-.76c-1.68,1.08-6.29,5.79-5.32,7.29.97,1.5,7.16-.77,8.83-1.86Z"/><circle class="cls-3" cx="120.03" cy="70.06" r="12.18"/><path class="cls-1" d="m111.5,73.76c1.99-.11,3.52-1.65,3.42-3.43s-1.8-3.14-3.79-3.03-8.33,1.92-8.23,3.7c.1,1.78,6.6,2.87,8.59,2.76Z"/><path class="cls-1" d="m115.7,63.58c.27,1.98,1.93,3.38,3.7,3.13,1.77-.25,2.98-2.05,2.71-4.02s-2.59-8.15-4.36-7.9-2.32,6.82-2.04,8.79Z"/><path class="cls-1" d="m123.91,78.32c.08-1.99-1.29-3.67-3.08-3.75-1.79-.08-3.3,1.48-3.39,3.47-.08,1.99,1.09,8.48,2.87,8.56s3.51-6.29,3.59-8.28Z"/><path class="cls-1" d="m128.23,66.79c-1.99.13-3.51,1.69-3.39,3.47.12,1.78,1.83,3.12,3.82,2.99s8.31-2,8.19-3.79c-.12-1.78-6.63-2.8-8.62-2.67Z"/><circle class="cls-1" cx="89.2" cy="36.62" r="7.9"/><path class="cls-4" d="m73.27,53.66l-2.84,13.3s-1.27,4.76-2.64-.5c-1.37-5.26-.23-14.63-.23-14.63l5.71,1.83Z"/><path class="cls-4" d="m34.46,41.48l-2.84,13.3s-1.27,4.76-2.64-.5c-1.37-5.26-.23-14.63-.23-14.63l5.71,1.83Z"/><circle class="cls-2" cx="93.35" cy="38.01" r="3.38"/><path class="cls-4" d="m1,22.63c0-10.55,14.41-21.85,28.86-21.63,12.14.18,18.84,3.56,28.33,13.03,3.78,3.77,7.34,9.27,12.53,10.58,11.38,2.86,19.76,5.31,22.37,16.71,2.36,10.28-7.93,22.1-31.38,19.1-10.04-1.28-18.47-3.9-24.86-7.45-1.46-.81-7.94-4.88-8.99-5.49h0C2.94,40.51,1,28.76,1,22.63Z"/><circle class="cls-1" cx="74.28" cy="44.11" r="7.9"/><path class="cls-4" d="m88.88,42.95c.7,7.13,10.38,13.16,21.31,20.01l-2.63,3.13s-16.12-9.52-19.61-12.65"/><path class="cls-4" d="m52.97,59.35l-2.84,13.3s-1.27,4.76-2.64-.5c-1.37-5.26-.23-14.63-.23-14.63l5.71,1.83Z"/><path class="cls-4" d="m20.08,45.31l-2.64,11.96s-1.18,4.28-2.45-.45c-1.27-4.73-.21-13.15-.21-13.15l5.3,1.64Z"/><circle class="cls-2" cx="77.32" cy="46.39" r="3.38"/></g></svg>