<?xml version="1.0" encoding="UTF-8"?><svg id="Layer_2" xmlns="http://www.w3.org/2000/svg" viewBox="0 0 119.59 118.82"><defs><style>.cls-1{fill:#eeedbe;}.cls-1,.cls-2,.cls-3,.cls-4{stroke:#214faa;stroke-miterlimit:10;stroke-width:2px;}.cls-2{fill:#132a5b;}.cls-3{fill:#d3c22a;}.cls-4{fill:#d663a6;}</style></defs><g id="Layer_2-2"><path class="cls-1" d="m25.78,10.12c-1.24,1.56-3.38,1.93-4.78.82s-1.53-3.28-.29-4.84c1.24-1.56,6.37-5.7,7.77-4.59,1.4,1.11-1.46,7.05-2.7,8.61Z"/><path class="cls-1" d="m9.02,21.44c1.42-1.41,3.58-1.52,4.84-.25s1.13,3.44-.28,4.84c-1.42,1.41-7,4.91-8.26,3.64-1.26-1.27,2.29-6.83,3.7-8.23Z"/><path class="cls-1" d="m10.48,8.72c1.7,1.05,2.31,3.13,1.37,4.65-.94,1.52-3.08,1.9-4.77.86-1.7-1.05-6.41-5.66-5.47-7.18s7.17.63,8.87,1.67Z"/><path class="cls-1" d="m23.22,25.87c-1.68-1.08-2.25-3.18-1.28-4.68s3.11-1.84,4.79-.76,6.29,5.79,5.32,7.29-7.16-.77-8.83-1.86Z"/><circle class="cls-3" cx="17.82" cy="16.28" r="12.18"/><path class="cls-1" d="m26.35,19.98c-1.99-.11-3.52-1.65-3.42-3.43s1.8-3.14,3.79-3.03c1.99.11,8.33,1.92,8.23,3.7s-6.6,2.87-8.59,2.76Z"/><path class="cls-1" d="m22.14,9.8c-.27,1.98-1.93,3.38-3.7,3.13s-2.98-2.05-2.71-4.02S18.33.76,20.1,1.01s2.32,6.82,2.04,8.79Z"/><path class="cls-1" d="m13.94,24.53c-.08-1.99,1.29-3.67,3.08-3.75,1.79-.08,3.3,1.48,3.39,3.47s-1.09,8.48-2.87,8.56-3.51-6.29-3.59-8.28Z"/><path class="cls-1" d="m9.62,13.01c1.99.13,3.51,1.69,3.39,3.47s-1.83,3.12-3.82,2.99S.88,17.46,1,15.67s6.63-2.8,8.62-2.67Z"/><circle class="cls-1" cx="57.59" cy="43.55" r="7.9"/><path class="cls-4" d="m65.28,82l-4.9,12.68s-2,4.5-2.53-.91,2.07-14.48,2.07-14.48l5.35,2.7Z"/><path class="cls-4" d="m104.63,101.68l-4.89,12.69s-2,4.5-2.53-.91c-.53-5.41,2.06-14.48,2.06-14.48l5.36,2.7Z"/><circle class="cls-2" cx="56.01" cy="39.46" r="3.38"/><path class="cls-4" d="m49.13,42.1c-7.16.33-14.52-8.37-22.87-18.2l-2.72,3.05s11.75,14.57,15.35,17.58"/><path class="cls-4" d="m86.33,103.39l-4.92,12.68s-2.01,4.49-2.53-.91c-.52-5.41,2.1-14.48,2.1-14.48l5.35,2.71Z"/><path class="cls-4" d="m50.09,80.53l-4.69,11.31s-1.91,4.01-2.33-.87c-.43-4.88,2.09-12.99,2.09-12.99l4.93,2.55Z"/><path class="cls-4" d="m111.33,106.31c8.72-5.93,9.96-24.2,1.65-36.03-6.98-9.94-13.54-13.58-26.71-16.1-5.25-1.01-11.8-.86-15.79-4.41-8.77-7.8-15.5-13.35-26.4-9.1-9.83,3.83-13.81,18.99,1.86,36.68,6.71,7.58,13.61,13.08,20.14,16.36,1.49.75,8.5,3.82,9.6,4.35h0c19.78,16.7,30.58,11.69,35.65,8.24Z"/><circle class="cls-1" cx="40.58" cy="51.91" r="7.9"/><circle class="cls-2" cx="38.31" cy="48.86" r="3.38"/></g></svg>