<?xml version="1.0" encoding="UTF-8"?><svg id="Layer_2" xmlns="http://www.w3.org/2000/svg" viewBox="0 0 34.59 33.36"><defs><style>.cls-1{fill:#eeedbe;}.cls-1,.cls-2{stroke:#214faa;stroke-miterlimit:10;stroke-width:2px;}.cls-2{fill:#d3c22a;}</style></defs><g id="Layer_2-2"><path class="cls-1" d="m27.6,13.57c-1.76.94-3.87.43-4.71-1.15s-.1-3.62,1.66-4.56c1.76-.94,8.11-2.7,8.96-1.13.84,1.57-4.14,5.89-5.9,6.83Z"/><path class="cls-1" d="m7.72,17.31c1.86-.73,3.89.03,4.54,1.69.65,1.66-.33,3.6-2.18,4.33-1.86.73-8.37,1.73-9.03.06s4.81-5.36,6.67-6.09Z"/><path class="cls-1" d="m14.11,6.21c1.14,1.64.88,3.79-.59,4.81-1.47,1.02-3.58.53-4.72-1.11S5.17,2.17,6.63,1.15c1.47-1.02,6.33,3.42,7.48,5.06Z"/><path class="cls-1" d="m18.99,27.01c-1.11-1.66-.8-3.81.68-4.8s3.59-.45,4.7,1.21,3.48,7.81,1.99,8.8c-1.49.99-6.26-3.55-7.37-5.21Z"/><circle class="cls-2" cx="17.85" cy="16.07" r="12.18"/><path class="cls-1" d="m24.2,22.85c-1.78-.89-2.58-2.91-1.78-4.51s2.89-2.17,4.68-1.28c1.78.89,6.89,5.07,6.09,6.67s-7.2.01-8.98-.88Z"/><path class="cls-1" d="m24.39,11.83c-1.04,1.7-3.11,2.33-4.64,1.4s-1.92-3.06-.89-4.77,5.62-6.45,7.14-5.52c1.53.93-.58,7.18-1.61,8.88Z"/><path class="cls-1" d="m11.01,22.1c.71-1.86,2.64-2.85,4.31-2.22,1.67.64,2.44,2.67,1.73,4.53s-4.37,7.35-6.03,6.71c-1.67-.64-.72-7.16,0-9.03Z"/><path class="cls-1" d="m11.62,9.81c1.77.91,2.55,2.94,1.73,4.53s-2.92,2.14-4.69,1.23S1.83,10.42,2.65,8.83s7.2.06,8.97.97Z"/></g></svg>